<svg width="18" height="18" viewBox="0 0 18 18" fill="none" xmlns="http://www.w3.org/2000/svg">
<path d="M3.75004 10.3781C3.74966 10.2661 3.77439 10.1554 3.82241 10.0542C3.87043 9.95292 3.94052 9.86374 4.02754 9.79315L8.52754 6.17065C8.66174 6.06034 8.83007 6.00003 9.00379 6.00003C9.17751 6.00003 9.34584 6.06034 9.48004 6.17065L13.98 9.92065C14.1332 10.048 14.2295 10.2309 14.2478 10.4292C14.2661 10.6275 14.2048 10.825 14.0775 10.9781C13.9502 11.1313 13.7673 11.2276 13.569 11.2459C13.3707 11.2642 13.1732 11.203 13.02 11.0756L9.00004 7.72315L4.98004 10.9631C4.86995 11.0549 4.73589 11.1131 4.59373 11.131C4.45157 11.1489 4.30725 11.1257 4.17786 11.0642C4.04846 11.0027 3.9394 10.9053 3.86358 10.7838C3.78777 10.6622 3.74836 10.5214 3.75004 10.3781Z" fill="white"/>
</svg>
