<svg width="16" height="16" viewBox="0 0 16 16" fill="none" xmlns="http://www.w3.org/2000/svg">
<path d="M6.78 12.6667C6.8796 12.667 6.97801 12.645 7.06799 12.6023C7.15798 12.5596 7.23726 12.4973 7.3 12.42L10.52 8.41999C10.6181 8.3007 10.6717 8.15107 10.6717 7.99666C10.6717 7.84224 10.6181 7.69261 10.52 7.57332L7.18667 3.57332C7.07351 3.43718 6.9109 3.35156 6.73462 3.33531C6.55833 3.31906 6.38281 3.3735 6.24667 3.48666C6.11052 3.59982 6.02491 3.76242 6.00866 3.93871C5.9924 4.11499 6.04684 4.29051 6.16 4.42666L9.14 7.99999L6.26 11.5733C6.17848 11.6712 6.1267 11.7903 6.11078 11.9167C6.09486 12.0431 6.11547 12.1714 6.17017 12.2864C6.22488 12.4014 6.31138 12.4983 6.41946 12.5657C6.52753 12.6331 6.65265 12.6681 6.78 12.6667Z" fill="white"/>
</svg>
