<svg width="16" height="16" viewBox="0 0 16 16" fill="none" xmlns="http://www.w3.org/2000/svg">
<path d="M2 8.66666H3.33333V7.33332H2V8.66666ZM2 11.3333H3.33333V9.99999H2V11.3333ZM2 5.99999H3.33333V4.66666H2V5.99999ZM4.66667 8.66666H14V7.33332H4.66667V8.66666ZM4.66667 11.3333H14V9.99999H4.66667V11.3333ZM4.66667 4.66666V5.99999H14V4.66666H4.66667ZM2 8.66666H3.33333V7.33332H2V8.66666ZM2 11.3333H3.33333V9.99999H2V11.3333ZM2 5.99999H3.33333V4.66666H2V5.99999ZM4.66667 8.66666H14V7.33332H4.66667V8.66666ZM4.66667 11.3333H14V9.99999H4.66667V11.3333ZM4.66667 4.66666V5.99999H14V4.66666H4.66667Z" fill="white"/>
</svg>
